<?xml version="1.0" encoding="utf-8"?>
<!-- Generator: Adobe Illustrator 19.0.0, SVG Export Plug-In . SVG Version: 6.00 Build 0)  -->
<svg version="1.1" xmlns="http://www.w3.org/2000/svg" xmlns:xlink="http://www.w3.org/1999/xlink" x="0px" y="0px"
	 viewBox="0 0 600 600" style="enable-background:new 0 0 600 600;" xml:space="preserve">
<style type="text/css">
	.st0{fill:#D54799;}
	.st1{fill:#9B9B9B;}
	.st2{fill:#010101;}
</style>
<g id="Layer_1">
	<g id="XMLID_3_">
		<g id="XMLID_34_">
			<g id="XMLID_35_">
				<polygon id="XMLID_36_" class="st0" points="133.2,423.9 116.2,414.4 305.1,95.4 322,104.9 				"/>
			</g>
		</g>
		<g id="XMLID_31_">
			<g id="XMLID_32_">
				<rect id="XMLID_33_" x="112.4" y="388.9" class="st0" width="377.7" height="19.1"/>
			</g>
		</g>
		<g id="XMLID_28_">
			<g id="XMLID_29_">
				<polygon id="XMLID_30_" class="st0" points="308.7,506 119.8,399.6 129.6,383.1 318.5,489.4 				"/>
			</g>
		</g>
		<g id="XMLID_25_">
			<g id="XMLID_26_">
				<polygon id="XMLID_27_" class="st0" points="472.8,228.7 283.9,122.4 293.7,105.8 482.6,212.2 				"/>
			</g>
		</g>
		<g id="XMLID_22_">
			<g id="XMLID_23_">
				<polygon id="XMLID_24_" class="st0" points="129.7,228.7 119.9,212.1 308.8,105.8 318.6,122.3 				"/>
			</g>
		</g>
		<g id="XMLID_19_">
			<g id="XMLID_20_">
				<polygon id="XMLID_21_" class="st0" points="469.3,423.9 280.5,104.9 297.5,95.4 486.3,414.4 				"/>
			</g>
		</g>
		<g id="XMLID_16_">
			<g id="XMLID_17_">
				<rect id="XMLID_18_" x="127.3" y="199.5" class="st0" width="19.6" height="212.7"/>
			</g>
		</g>
		<g id="XMLID_13_">
			<g id="XMLID_14_">
				<rect id="XMLID_15_" x="455.6" y="199.5" class="st0" width="19.6" height="212.7"/>
			</g>
		</g>
		<g id="XMLID_10_">
			<g id="XMLID_11_">
				<polygon id="XMLID_12_" class="st0" points="305.4,497.9 296.8,483.4 461.1,390.9 469.7,405.4 				"/>
			</g>
		</g>
		<path id="XMLID_9_" class="st0" d="M501.1,418.4c-11.3,19.2-36.6,25.8-56.2,14.7c-19.7-11-26.4-35.6-15.1-54.9
			s36.6-25.8,56.2-14.7C505.8,374.7,512.5,399.2,501.1,418.4"/>
		<path id="XMLID_8_" class="st0" d="M172.6,233.4c-11.3,19.2-36.6,25.8-56.2,14.7s-26.4-35.6-15.1-54.9s36.6-25.8,56.2-14.7
			C177.2,189.7,183.9,214.2,172.6,233.4"/>
		<path id="XMLID_7_" class="st0" d="M101.4,418.4c-11.3-19.2-4.6-43.7,15.1-54.9c19.7-11,44.8-4.5,56.2,14.7
			c11.3,19.2,4.6,43.7-15.1,54.9C137.8,444.2,112.7,437.6,101.4,418.4"/>
		<path id="XMLID_6_" class="st0" d="M429.9,233.4c-11.3-19.2-4.6-43.7,15.1-54.9c19.7-11,44.8-4.5,56.2,14.7
			c11.3,19.2,4.6,43.7-15.1,54.9C466.4,259.2,441.2,252.6,429.9,233.4"/>
		<path id="XMLID_5_" class="st0" d="M301.2,531c-22.8,0-41.1-17.9-41.1-40.1s18.4-40.1,41.1-40.1s41.1,17.9,41.1,40.1
			C342.4,512.9,324,531,301.2,531"/>
		<path id="XMLID_4_" class="st0" d="M301.2,161c-22.8,0-41.1-17.9-41.1-40.1s18.4-40.1,41.1-40.1s41.1,17.9,41.1,40.1
			S324,161,301.2,161"/>
	</g>
</g>
<g id="Layer_2">
	<path id="XMLID_1_" class="st1" d="M85.9,237.3c0,18.2-2,31.3-7.1,40.4c-5.1,9.1-13.1,17.2-26.3,23.2c12.1,6.1,21.2,14.1,26.3,24.3
		c5.1,10.1,7.1,23.2,7.1,40.4v87.9c0,20.2,3,33.4,10.1,39.4c7.1,6.1,21.2,9.1,42.4,9.1v34.4h-16.2c-27.3,0-47.5-6.1-58.6-18.2
		c-12.1-12.1-17.2-32.3-17.2-61.7v-90c0-15.2-2-27.3-7.1-35.4c-5.1-8.1-13.1-13.1-24.3-16.2v-32.3c21.2-6.1,31.3-22.2,31.3-48.5v-96
		c0-26.3,6.1-45.5,18.2-57.6C76.8,68.6,96,63.5,123.3,63.5h15.2v34.4c-21.2,0-35.4,4-42.4,10.1s-10.1,19.2-10.1,37.4V237.3z"/>
	<path id="XMLID_2_" class="st1" d="M514.4,239.7c0,18.2,2,31.3,7.1,40.4c5.1,9.1,13.1,17.2,26.3,23.2
		c-12.1,6.1-21.2,14.1-26.3,24.3c-5.1,10.1-7.1,23.2-7.1,40.4V456c0,20.2-3,33.4-10.1,39.4c-7.1,6.1-21.2,9.1-42.4,9.1v34.4h16.2
		c27.3,0,47.5-6.1,58.6-18.2c12.1-12.1,17.2-32.3,17.2-61.7v-90c0-15.2,2-27.3,7.1-35.4c5.1-8.1,13.1-13.1,24.3-16.2v-32.3
		c-21.2-6.1-31.3-22.2-31.3-48.5v-96c0-26.3-6.1-45.5-18.2-57.6c-12.1-12.1-31.3-17.2-58.6-17.2h-15.2v34.4c21.2,0,35.4,4,42.4,10.1
		c7.1,6.1,10.1,19.2,10.1,37.4V239.7z"/>
</g>
<g id="Layer_3">
	<g id="XMLID_37_">
		<path id="XMLID_38_" class="st2" d="M214.3,392.4c0,2.7-1.1,5.3-3.2,7.5c3.2,2.7,6.9,3.7,10.7,3.7c7.5,0,12.3-2.1,15.5-6.4
			c3.2-4.3,4.8-11.2,4.8-20.3v-60.3c0-11.2-0.5-18.1-1.1-20.8c-0.5-2.7-2.1-3.7-5.3-3.7c-1.6,0-3.2,0-5.3,0.5
			c-1.1,0.5-2.1,0.5-3.7,0.5c-4.3,0-6.4-2.1-6.4-6.4c0-4.3,2.7-6.4,8-6.4c2.1,0,3.7,0,4.8,0c4.3,0.5,6.9,0.5,8.5,0.5
			c1.1,0,2.7,0,4.8-0.5c2.1-0.5,3.7-0.5,4.8-0.5c3.7,0,5.3,2.1,5.3,6.4c0,0.5,0,2.1,0,3.7c0,2.1,0,4.3,0,5.3c0,2.1-0.5,6.4-0.5,13.9
			c0,8-0.5,14.4-0.5,18.7v43.2c0,7.5-0.5,13.3-1.1,17.1c-1.1,5.9-3.2,11.2-6.9,15.5c-6.4,7.5-14.9,11.2-25.6,11.2
			c-7.5,0-13.9-2.1-19.2-5.9s-7.5-8.5-7.5-14.4c0-3.2,1.1-5.9,2.7-8c1.6-2.1,4.3-3.2,6.9-3.2s4.3,0.5,6.4,2.1
			C213.3,387.1,214.3,390.3,214.3,392.4z M246.9,270.7c-3.2,0-5.3-1.1-7.5-3.2c-2.1-2.1-3.2-4.8-3.2-7.5s1.1-5.3,3.2-7.5
			c2.1-2.1,4.8-3.2,7.5-3.2c3.2,0,5.3,1.1,7.5,3.2c2.1,2.1,3.2,4.8,3.2,7.5c0,3.2-1.1,5.3-3.2,7.5
			C252.2,269.7,249.5,270.7,246.9,270.7z"/>
		<path id="XMLID_42_" class="st1" d="M273.9,295.4c0-3.2,1.1-6.4,3.2-8.5c2.1-2.1,5.3-3.7,8.5-3.7c3.2,0,6.4,1.1,8.5,3.7
			c2.1,2.1,3.2,5.3,3.2,8.5c0,3.2-1.1,6.4-3.2,8.5c-2.7,2.7-5.3,3.7-8.5,3.7c-3.2,0-6.4-1.1-8.5-3.7
			C275,301.8,273.9,298.6,273.9,295.4"/>
		<path id="XMLID_41_" class="st1" d="M273.9,360.5c0-3.2,1.1-6.4,3.2-8.5c2.1-2.1,5.3-3.7,8.5-3.7c3.2,0,6.4,1.1,8.5,3.7
			c2.1,2.1,3.2,5.3,3.2,8.5c0,3.2-1.1,6.4-3.2,8.5c-2.7,2.7-5.3,3.7-8.5,3.7c-3.2,0-6.4-1.1-8.5-3.7
			C275,366.9,273.9,363.7,273.9,360.5"/>
		<path id="XMLID_43_" class="st2" d="M397.2,378.6c-10.7,0-17.1-4.8-19.2-13.9c-6.4,9.6-16.5,14.4-30.9,14.4
			c-10.1,0-18.7-2.7-25.1-7.5c-6.4-4.8-9.1-11.7-9.1-20.8c0-10.7,4.8-18.7,13.9-23.5c3.2-2.1,6.4-3.2,9.1-3.7
			c2.7-0.5,7.5-1.1,14.9-2.1c10.7-1.1,17.6-2.7,20.8-4.8c3.2-2.1,4.8-5.9,4.8-11.2s-1.6-9.6-5.3-12.3c-3.7-3.2-8.5-4.3-15.5-4.3
			c-5.9,0-11.2,1.6-16,4.8c-2.1,1.1-2.7,2.7-2.7,4.3c0,0.5,0.5,1.1,1.6,2.1c1.6,1.1,2.7,3.2,2.7,6.4c0,2.7-1.1,4.8-2.7,6.4
			c-1.6,1.6-4.3,2.7-6.9,2.7c-3.2,0-5.9-1.1-8.5-3.2c-2.1-2.1-3.2-5.3-3.2-8.5c0-6.9,3.7-13.3,10.7-18.7c6.9-5.3,15.5-7.5,25.6-7.5
			c23.5,0,35.2,11.2,35.2,33.6v39c0,5.9,0,9.6,0.5,10.7c0.5,4.3,3.2,6.9,6.4,6.9c4.3,0,6.9-4.3,6.9-12.3v-9.6c0-4.3,2.1-5.9,5.9-5.9
			c4.3,0,6.4,3.2,6.4,9.1v1.1v11.2C416.9,372.8,410,378.6,397.2,378.6z M375.9,340.8v-13.9c-2.7,2.7-5.9,4.3-9.1,5.3
			c-3.2,1.1-8.5,2.1-16.5,2.7c-14.4,1.6-21.9,6.9-21.9,16c0,4.8,1.6,8.5,5.3,11.7c3.7,3.2,8.5,4.3,14.4,4.3c8.5,0,15.5-2.1,20.3-6.9
			C373.2,355.2,375.9,348.8,375.9,340.8z"/>
	</g>
</g>
</svg>
